<?xml version="1.0" encoding="UTF-8" standalone="no"?>
<svg xmlns:dc="http://purl.org/dc/elements/1.1/" xmlns:cc="http://creativecommons.org/ns#" xmlns:rdf="http://www.w3.org/1999/02/22-rdf-syntax-ns#" xmlns:svg="http://www.w3.org/2000/svg" xmlns="http://www.w3.org/2000/svg" xmlns:xlink="http://www.w3.org/1999/xlink" xmlns:sodipodi="http://sodipodi.sourceforge.net/DTD/sodipodi-0.dtd" xmlns:inkscape="http://www.inkscape.org/namespaces/inkscape" width="64px" height="64px" viewBox="0 0 64.000001 64.000001" id="svg2" version="1.1" inkscape:version="0.91 r13725" sodipodi:docname="TestIcon.svg">
  <defs id="defs4">
    <linearGradient inkscape:collect="always" id="linearGradient4198">
      <stop style="stop-color:#ffb940;stop-opacity:1;" offset="0" id="stop4200"/>
      <stop style="stop-color:#ff7c40;stop-opacity:1" offset="1" id="stop4202"/>
    </linearGradient>
    <filter style="color-interpolation-filters:sRGB" inkscape:label="Drop Shadow" id="filter4290">
      <feFlood flood-opacity="0.498039" flood-color="rgb(0,0,0)" result="flood" id="feFlood4292"/>
      <feComposite in="flood" in2="SourceGraphic" operator="in" result="composite1" id="feComposite4294"/>
      <feGaussianBlur in="composite1" stdDeviation="6.6" result="blur" id="feGaussianBlur4296"/>
      <feOffset dx="1.8" dy="1.5" result="offset" id="feOffset4298"/>
      <feComposite in="SourceGraphic" in2="offset" operator="over" result="composite2" id="feComposite4300"/>
    </filter>
    <radialGradient inkscape:collect="always" xlink:href="#linearGradient4198" id="radialGradient4276" cx="24.500319" cy="1013.2009" fx="24.500319" fy="1013.2009" r="11.5625" gradientUnits="userSpaceOnUse" gradientTransform="matrix(1.8101256,-0.0343316,0.02795408,1.4738724,-48.171431,-479.28688)"/>
    <filter inkscape:collect="always" style="color-interpolation-filters:sRGB" id="filter4312" x="-0.108" width="1.216" y="-0.108" height="1.216">
      <feGaussianBlur inkscape:collect="always" stdDeviation="1.040625" id="feGaussianBlur4314"/>
    </filter>
    <radialGradient inkscape:collect="always" xlink:href="#linearGradient4198" id="radialGradient4318" gradientUnits="userSpaceOnUse" gradientTransform="matrix(1.8101256,-0.0343316,0.02795408,1.4738724,-48.171431,-479.28688)" cx="24.500319" cy="1013.2009" fx="24.500319" fy="1013.2009" r="11.5625"/>
    <filter inkscape:collect="always" style="color-interpolation-filters:sRGB" id="filter4411" x="-0.056796073" width="1.1135921" y="-0.063587011" height="1.127174">
      <feGaussianBlur inkscape:collect="always" stdDeviation="0.30598144" id="feGaussianBlur4413"/>
    </filter>
  </defs>
  <sodipodi:namedview id="base" pagecolor="#ffffff" bordercolor="#666666" borderopacity="1.0" inkscape:pageopacity="0.0" inkscape:pageshadow="2" inkscape:zoom="4" inkscape:cx="57.555975" inkscape:cy="4.9126829" inkscape:document-units="px" inkscape:current-layer="layer1" showgrid="false" inkscape:window-width="1440" inkscape:window-height="803" inkscape:window-x="30" inkscape:window-y="151" inkscape:window-maximized="0" units="px"/>
  
  <g inkscape:label="Layer 1" inkscape:groupmode="layer" id="layer1" transform="translate(0,-988.36216)">
    <g id="g4186" transform="matrix(2.095605,0,0,2.095605,-32.308877,-1119.8786)">
      <rect transform="matrix(0.93741909,0,0,1.0062187,1.9204516,-4.3386877)" style="opacity:0.41000001;fill:url(#radialGradient4318);fill-opacity:1;stroke:none;filter:url(#filter4312)" id="rect4278" width="23.125" height="23.125" x="19.125" y="1007.7372" ry="4.5078058"/>
      <rect ry="4.5078058" y="1007.7372" x="19.125" height="23.125" width="23.125" id="rect4266" style="fill:url(#radialGradient4276);fill-opacity:1;stroke:none"/>
      <path inkscape:connector-curvature="0" style="opacity:1;fill:#d45500;fill-opacity:1;stroke:none;filter:url(#filter4411)" d="m 26.880859,25.611328 c -1.478359,0 -2.667968,1.191622 -2.667968,2.669922 l 0,3.958984 c 0,1.4784 1.189609,2.667969 2.667968,2.667969 l 0.0918,0 -0.164062,2.251953 2.140625,-2.251953 5.52539,0 c 1.478359,0 2.667969,-1.189569 2.667969,-2.667969 l 0,-3.958984 c 0,-1.4783 -1.18961,-2.669922 -2.667969,-2.669922 l -7.59375,0 z M 27.53125,29.34375 A 0.96875,0.96875 0 0 1 28.5,30.3125 0.96875,0.96875 0 0 1 27.53125,31.28125 0.96875,0.96875 0 0 1 26.5625,30.3125 0.96875,0.96875 0 0 1 27.53125,29.34375 Z m 3.28125,0 a 0.96875,0.96875 0 0 1 0.96875,0.96875 0.96875,0.96875 0 0 1 -0.96875,0.96875 0.96875,0.96875 0 0 1 -0.96875,-0.96875 0.96875,0.96875 0 0 1 0.96875,-0.96875 z m 3.28125,0 A 0.96875,0.96875 0 0 1 35.0625,30.3125 0.96875,0.96875 0 0 1 34.09375,31.28125 0.96875,0.96875 0 0 1 33.125,30.3125 0.96875,0.96875 0 0 1 34.09375,29.34375 Z" transform="matrix(0.9449788,0,0,1.0033417,1.6879256,988.25728)" id="path4385"/>
      <path id="rect4344" transform="translate(0,988.36216)" d="m 26.880859,25.611328 c -1.478359,0 -2.667968,1.191622 -2.667968,2.669922 l 0,3.958984 c 0,1.4784 1.189609,2.667969 2.667968,2.667969 l 0.0918,0 -0.164062,2.251953 2.140625,-2.251953 5.52539,0 c 1.478359,0 2.667969,-1.189569 2.667969,-2.667969 l 0,-3.958984 c 0,-1.4783 -1.18961,-2.669922 -2.667969,-2.669922 l -7.59375,0 z M 27.53125,29.34375 A 0.96875,0.96875 0 0 1 28.5,30.3125 0.96875,0.96875 0 0 1 27.53125,31.28125 0.96875,0.96875 0 0 1 26.5625,30.3125 0.96875,0.96875 0 0 1 27.53125,29.34375 Z m 3.28125,0 a 0.96875,0.96875 0 0 1 0.96875,0.96875 0.96875,0.96875 0 0 1 -0.96875,0.96875 0.96875,0.96875 0 0 1 -0.96875,-0.96875 0.96875,0.96875 0 0 1 0.96875,-0.96875 z m 3.28125,0 A 0.96875,0.96875 0 0 1 35.0625,30.3125 0.96875,0.96875 0 0 1 34.09375,31.28125 0.96875,0.96875 0 0 1 33.125,30.3125 0.96875,0.96875 0 0 1 34.09375,29.34375 Z" style="opacity:1;fill:#ffffff;fill-opacity:1;stroke:none" inkscape:connector-curvature="0"/>
    </g>
  </g>

	<metadata>
		<rdf:RDF xmlns:rdf="http://www.w3.org/1999/02/22-rdf-syntax-ns#" xmlns:rdfs="http://www.w3.org/2000/01/rdf-schema#" xmlns:dc="http://purl.org/dc/elements/1.1/">
			<rdf:Description about="https://iconscout.com/legal#licenses" dc:title="Ui, Communication, Chatting, Chat, Bubble" dc:description="Ui, Communication, Chatting, Chat, Bubble" dc:publisher="Iconscout" dc:date="2016-10-07" dc:format="image/svg+xml" dc:language="en">
				<dc:creator>
					<rdf:Bag>
						<rdf:li>Chameleon Design</rdf:li>
					</rdf:Bag>
				</dc:creator>
			</rdf:Description>
		</rdf:RDF>
    </metadata></svg>
